<svg width="143" height="35" viewBox="0 0 143 35" fill="none" xmlns="http://www.w3.org/2000/svg">
<path d="M140.5 29C136.5 33 130.983 33.8311 128.5 33.5C121 32.5 114 27.3888 114 18C114 8.61113 123 2.5 129 2.49997C133.5 2.49995 137 3 141 7.5L136.5 11.5C134.5 9.5 132 8.99997 128.765 8.99997C125.282 8.99997 120.5 13.457 120.5 18C120.5 20 121 23 123.5 25" stroke="#01651E" stroke-width="2.5"/>
<path d="M89.5 25V33H82.5V2H100C103 2 110 4.5 110 13C109.5 24 99.5 24 95 24C95 21 95 19 95 17C98 17 98 17 99.5 17C102.134 17 103.5 14 103.5 13C103.5 11 101.933 8.5 99.5 8.5C97.0669 8.5 91 8.5 88 8.5" stroke="#01651E" stroke-width="2.5"/>
<path d="M78.4428 21.7C76.6708 28.2197 72 33 64 33C55 33 49 26.0604 49 17.5C49 8.93959 55.7157 2 64 2C70.9458 2 76.7889 6.87826 78.4958 13.5H69.0764C68.0135 11.3968 66.1372 10.5 64 10.5C60.6863 10.5 58 13.3579 58 17.5C58 21.6421 60.6863 25 64 25C66.087 25 67.9251 23.6681 69 21.6472V21.7H78.4428Z" fill="#130269"/>
<path d="M27 3H46V9.5H35.5V14.5H45V20.5H35.5V26H46V32.5H27V3Z" fill="#130269"/>
<path d="M16.3 32.5H8V9.5H0V3L24 3V9.5H16.3V32.5Z" fill="#130269"/>
</svg>
