<svg width="44" height="44" viewBox="0 0 44 44" fill="none" xmlns="http://www.w3.org/2000/svg">
<path d="M12.25 16.75C12.25 25.034 18.966 31.75 27.25 31.75H29.5C30.0967 31.75 30.669 31.5129 31.091 31.091C31.5129 30.669 31.75 30.0967 31.75 29.5V28.128C31.75 27.612 31.399 27.162 30.898 27.037L26.475 25.931C26.035 25.821 25.573 25.986 25.302 26.348L24.332 27.641C24.05 28.017 23.563 28.183 23.122 28.021C21.4849 27.4191 19.9982 26.4686 18.7648 25.2352C17.5314 24.0018 16.5809 22.5151 15.979 20.878C15.817 20.437 15.983 19.95 16.359 19.668L17.652 18.698C18.015 18.427 18.179 17.964 18.069 17.525L16.963 13.102C16.9021 12.8587 16.7617 12.6427 16.5641 12.4883C16.3664 12.334 16.1228 12.2501 15.872 12.25H14.5C13.9033 12.25 13.331 12.4871 12.909 12.909C12.4871 13.331 12.25 13.9033 12.25 14.5V16.75Z" fill="#130269" stroke="#130269" stroke-width="1.5" stroke-linecap="round" stroke-linejoin="round"/>
<circle cx="22" cy="22" r="21" stroke="#130269" stroke-width="2"/>
</svg>
